# xmcd CD database file
#
# Track frame offsets:
#	150
#	35873
#	65093
#	95473
#	130338
#	165115
#
# Disc length: 2657 seconds
#
# Revision: 0
# Processed by: cddbd v1.5.1PL2 Copyright (c) Steve Scherf et al.
# Submitted via: CDex 1.51
#
DISCID=4d0a5f06
DTITLE=The Don Menza Sextet - Horn of Plenty
DYEAR=1900
DGENRE=Jazz
TTITLE0=Tonawanda Fats
TTITLE1=In a sentimetal Mood
TTITLE2=Take the "A" Train
TTITLE3=As is
TTITLE4=Somthing old,Somthing blue
TTITLE5=Intrigue
EXTD=
EXTT0=
EXTT1=
EXTT2=
EXTT3=
EXTT4=
EXTT5=
PLAYORDER=
